<svg width="122" height="117" viewBox="0 0 122 117" fill="none" xmlns="http://www.w3.org/2000/svg">
<path d="M5 0L11.375 72L40 80L68.615 72.005L75 0H5Z" fill="#2196F3"/>
<path d="M61.37 23.545L60.565 32.59L58.135 59.705L40 64.72L39.985 64.725L21.86 59.705L20.595 45.525H29.475L30.135 52.88L39.99 55.54L39.995 55.535L49.865 52.875L51.21 40.62L20.17 40.705L19.29 32.325L51.955 31.94L52.615 22.97L18.415 23.065L17.84 14.72H40H62.16L61.37 23.545Z" fill="#FAFAFA"/>
<path d="M47 37L53.375 109L82 117L110.615 109.005L117 37H47Z" fill="#FF5722"/>
<path d="M103.175 60.545H82H69.625L70.425 69.59H82H102.375L99.97 96.71L82 101.725L81.985 101.73L64.025 96.71L62.77 82.525H71.57L72.225 89.885L81.99 92.54L82 92.535L91.775 89.88L92.795 78.425H82H62.41L60.04 51.72H82H103.955L103.175 60.545Z" fill="#FAFAFA"/>
</svg>
