<svg width="120" height="120" viewBox="0 0 120 120" fill="none" xmlns="http://www.w3.org/2000/svg">
<g clip-path="url(#clip0)">
<path d="M110.516 27.6842C106.045 20.6824 96.4312 17.7738 83.4775 19.4432C83.0199 19.4969 82.5349 19.5779 82.0773 19.6315C81.889 19.2013 81.7007 18.77 81.4851 18.3397C75.9108 6.51685 68.2894 0 59.9947 0C51.7001 0 44.0524 6.51685 38.5044 18.3397C38.3161 18.77 38.1005 19.2013 37.9122 19.6315C37.4272 19.5516 36.9696 19.4969 36.512 19.4432C23.532 17.7464 13.9445 20.6824 9.47368 27.6842C5.00393 34.686 6.37673 44.6228 13.3249 55.6641C14.2411 57.1189 15.2373 58.5727 16.3145 60.0002C15.2373 61.454 14.2411 62.8815 13.3249 64.3353C6.37673 75.3766 5.00393 85.3407 9.47368 92.3162C13.1092 98.0252 20.1657 101.015 29.6712 101.015C31.9497 101.002 34.2251 100.85 36.4847 100.556C36.9423 100.503 37.4272 100.422 37.8848 100.368C38.0742 100.799 38.2625 101.229 38.4781 101.661C44.0524 113.483 51.6738 120 59.9674 120C68.262 120 75.9108 113.483 81.4577 101.661C81.646 101.229 81.8617 100.799 82.05 100.368C82.5349 100.449 82.9925 100.503 83.4512 100.556C85.7087 100.862 87.9851 101.015 90.2636 101.015C99.7701 101.015 106.826 98.0252 110.461 92.3162C114.932 85.3144 113.558 75.3766 106.611 64.3353C105.695 62.8815 104.699 61.4277 103.621 60.0002C104.699 58.5454 105.695 57.1189 106.611 55.6641C113.639 44.5965 115.013 34.6587 110.516 27.6842ZM43.3792 20.6288C47.9299 10.934 53.9892 5.386 59.9947 5.386C66.0003 5.386 72.0596 10.934 76.6103 20.6288C76.6135 20.6488 76.623 20.6677 76.6377 20.6824C70.9172 22.0584 65.3376 23.9603 59.9674 26.364C54.6035 23.9488 49.0218 22.0458 43.2982 20.6824C43.3518 20.6824 43.3518 20.6551 43.3792 20.6288ZM84.2591 60.0002C84.2601 64.309 84.0266 68.6157 83.5585 72.8993C80.2017 75.608 76.6955 78.1254 73.0558 80.4397C68.8553 83.1369 64.4834 85.5574 59.9674 87.6845C55.4608 85.5406 51.0889 83.1211 46.8801 80.4397C43.2445 78.119 39.7383 75.6017 36.3774 72.8993C35.4432 64.3248 35.4432 55.6746 36.3774 47.1001C43.6358 41.267 51.5539 36.305 59.9674 32.316C64.475 34.4588 68.8459 36.8783 73.0558 39.5597C76.6913 41.8803 80.1975 44.3977 83.5585 47.1001C84.0266 51.3847 84.2601 55.6904 84.2591 60.0002ZM89.4021 52.1632C92.0393 54.6195 94.5219 57.2367 96.8352 60.0002C94.5219 62.7626 92.0393 65.3799 89.4021 67.8362C89.5641 65.2516 89.6451 62.6396 89.6451 60.0002C89.6451 57.3609 89.5641 54.7489 89.4021 52.1632ZM82.4539 80.548C81.604 85.2103 80.37 89.7947 78.7647 94.255C74.5822 93.3103 70.4775 92.0501 66.4853 90.4848C69.6622 88.8153 72.8401 86.9839 75.9907 84.9915C78.1998 83.564 80.3542 82.0828 82.4539 80.548ZM53.5042 90.4848C49.5194 92.07 45.4126 93.3313 41.2248 94.255C39.6195 89.7947 38.3855 85.2103 37.5356 80.548C39.609 82.0828 41.7634 83.564 43.9988 84.9641C47.1494 86.9839 50.3273 88.8153 53.5042 90.4848ZM30.5874 67.8362C27.9502 65.3799 25.4686 62.7626 23.1543 60.0002C25.4686 57.2367 27.9502 54.6195 30.5874 52.1632C30.4254 54.7489 30.3444 57.3609 30.3444 60.0002C30.3444 62.6396 30.4254 65.2516 30.5874 67.8362ZM37.5356 39.4524C38.3855 34.7891 39.6195 30.2047 41.2248 25.7455C45.4073 26.6891 49.5131 27.9493 53.5042 29.5157C50.3273 31.1851 47.1494 33.0166 43.9988 35.009C41.7897 36.4365 39.6353 37.9176 37.5356 39.4524ZM75.9644 35.009C72.8401 33.0166 69.6622 31.1578 66.4579 29.5157C70.4427 27.9304 74.5496 26.6691 78.7384 25.7455C80.3427 30.2047 81.5766 34.7891 82.4276 39.4524C80.3542 37.9176 78.1998 36.4365 75.9644 35.009ZM17.8767 52.7828C12.1667 43.7339 10.7665 35.6286 13.9981 30.5655C16.5838 26.526 22.1855 24.3443 29.7522 24.3443C31.7782 24.3527 33.8022 24.4884 35.8114 24.7482H35.8651C33.6865 31.0831 32.1706 37.6262 31.3417 44.2725C27.1917 47.7345 23.3279 51.5267 19.7881 55.6104C19.1148 54.6952 18.4689 53.7527 17.8767 52.7828ZM35.7851 95.2249C33.7759 95.4857 31.7519 95.6204 29.7259 95.6288C22.1581 95.6288 16.5565 93.4744 13.9718 89.4076C10.7402 84.3445 12.1404 76.2392 17.8493 67.1903C18.4416 66.2478 19.0885 65.2779 19.7618 64.3353C23.3005 68.4201 27.1644 72.2113 31.3143 75.6733C32.1443 82.3205 33.6602 88.8637 35.8388 95.1975C35.8388 95.2249 35.8114 95.2249 35.7851 95.2249ZM76.6103 99.3717C72.0596 109.066 66.0003 114.614 59.9947 114.614C53.9892 114.614 47.9299 109.066 43.3792 99.3717C43.376 99.3517 43.3665 99.3327 43.3518 99.318C49.0723 97.942 54.6519 96.0401 60.0221 93.6354C65.386 96.0517 70.9677 97.9547 76.6913 99.318C76.6377 99.318 76.6377 99.3443 76.6103 99.3717ZM102.113 67.2177C107.823 76.2655 109.223 84.3719 105.991 89.4349C102.76 94.4969 94.8154 96.625 84.2044 95.2249H84.1507C86.3293 88.89 87.8462 82.3468 88.6752 75.7006C92.8251 72.2386 96.689 68.4464 100.228 64.3627C100.875 65.3052 101.521 66.2478 102.113 67.2177ZM88.6478 44.2998C87.8189 37.6525 86.303 31.1094 84.1244 24.7756H84.1781C94.7881 23.4017 102.732 25.5025 105.964 30.5655C109.196 35.6286 107.795 43.7339 102.087 52.7828C101.494 53.7253 100.847 54.6952 100.174 55.6378C96.6511 51.5467 92.7957 47.7544 88.6478 44.2998Z" fill="url(#paint0_linear)"/>
<path d="M59.9947 49.3356C54.1049 49.3356 49.33 54.1104 49.33 60.0003C49.33 65.8901 54.1049 70.6639 59.9947 70.6639C65.8846 70.6639 70.6594 65.8901 70.6594 60.0003C70.6552 54.1114 65.8825 49.3398 59.9947 49.3356ZM59.9947 65.2779C57.0798 65.2779 54.716 62.9152 54.716 60.0003C54.716 57.0853 57.0798 54.7216 59.9947 54.7216C62.9097 54.7216 65.2734 57.0853 65.2734 60.0003C65.2682 62.9131 62.9076 65.2737 59.9947 65.2779Z" fill="url(#paint1_linear)"/>
</g>
<defs>
<linearGradient id="paint0_linear" x1="60.0029" y1="-4.63196" x2="60.0029" y2="125.927" gradientUnits="userSpaceOnUse">
<stop stop-color="#00EFD1"/>
<stop offset="1" stop-color="#00ACEA"/>
</linearGradient>
<linearGradient id="paint1_linear" x1="59.9948" y1="-4.63189" x2="59.9948" y2="125.927" gradientUnits="userSpaceOnUse">
<stop stop-color="#00EFD1"/>
<stop offset="1" stop-color="#00ACEA"/>
</linearGradient>
<clipPath id="clip0">
<rect width="120" height="120" fill="white"/>
</clipPath>
</defs>
</svg>
